<svg width="16" height="16" viewBox="0 0 16 16" fill="none" xmlns="http://www.w3.org/2000/svg">
    <g clip-path="url(#clip0_42_7713)">
        <path
            d="M5.66393 8.67235C5.49519 8.50358 5.40039 8.27469 5.40039 8.03602C5.40039 7.79736 5.49519 7.56847 5.66393 7.39969L9.19727 3.86636C9.2804 3.78085 9.37969 3.71273 9.48938 3.66593C9.59907 3.61914 9.71697 3.59461 9.83622 3.59377C9.95547 3.59293 10.0737 3.61581 10.184 3.66105C10.2944 3.7063 10.3946 3.77303 10.4789 3.85735C10.5633 3.94168 10.63 4.04192 10.6752 4.15226C10.7205 4.26259 10.7434 4.38082 10.7425 4.50007C10.7417 4.61932 10.7171 4.73722 10.6704 4.8469C10.6236 4.95659 10.5554 5.05589 10.4699 5.13902L7.5726 8.03635L10.4719 10.9357C10.6368 11.1053 10.7283 11.3329 10.7266 11.5694C10.725 11.8059 10.6303 12.0322 10.4631 12.1995C10.2958 12.3667 10.0695 12.4614 9.83298 12.4631C9.59648 12.4647 9.36883 12.3732 9.19927 12.2084L5.66393 8.67235Z"
            fill="#6F7373" />
    </g>
    <defs>
        <clipPath id="clip0_42_7713">
            <rect width="16" height="16" fill="white" />
        </clipPath>
    </defs>
</svg>