<svg width="385" height="287" viewBox="0 0 385 287" fill="none" xmlns="http://www.w3.org/2000/svg">
<path d="M157.535 12.5H109.516C108.023 12.4989 106.59 13.0888 105.531 14.1406L9.53127 110.117C7.42976 112.229 6.25 115.087 6.25 118.066C6.25 121.046 7.42976 123.904 9.53127 126.016L55.2344 171.719C57.3469 173.821 60.2056 175 63.1856 175C66.1655 175 69.0242 173.821 71.1367 171.719L167.109 75.7813C168.161 74.7221 168.751 73.2896 168.75 71.7969V23.75C168.757 22.2736 168.472 20.8103 167.912 19.4444C167.351 18.0786 166.526 16.8371 165.484 15.7914C164.441 14.7458 163.202 13.9167 161.838 13.3518C160.474 12.7869 159.012 12.4974 157.535 12.5Z" stroke="black" stroke-linecap="round" stroke-linejoin="round"/>
<path d="M137.5 56.25C135.028 56.25 132.611 55.5169 130.555 54.1434C128.5 52.7699 126.898 50.8176 125.952 48.5336C125.005 46.2495 124.758 43.7361 125.24 41.3114C125.723 38.8866 126.913 36.6593 128.661 34.9112C130.409 33.163 132.637 31.9725 135.061 31.4902C137.486 31.0079 139.999 31.2554 142.284 32.2015C144.568 33.1476 146.52 34.7498 147.893 36.8054C149.267 38.861 150 41.2777 150 43.75C150 47.0652 148.683 50.2446 146.339 52.5888C143.995 54.933 140.815 56.25 137.5 56.25Z" fill="black"/>
<path d="M89.8438 187.5L192.188 85.1562C192.697 84.6431 193.097 84.0329 193.366 83.3619C193.634 82.6908 193.765 81.9726 193.75 81.25V31.25" stroke="black" stroke-linecap="round" stroke-linejoin="round"/>
<path d="M114.401 183.962C115.881 185.398 116.868 186.9 117.362 188.468C117.861 190.032 117.917 191.561 117.53 193.056C117.144 194.542 116.37 195.883 115.209 197.081C114.039 198.287 112.715 199.104 111.237 199.531C109.759 199.958 108.231 199.947 106.653 199.497C105.075 199.046 103.548 198.105 102.072 196.674C100.592 195.239 99.6023 193.739 99.104 192.175C98.6056 190.611 98.5496 189.086 98.9361 187.6C99.3181 186.11 100.094 184.762 101.264 183.556C102.425 182.358 103.745 181.546 105.223 181.119C106.701 180.682 108.229 180.69 109.807 181.14C111.389 181.586 112.921 182.527 114.401 183.962ZM111.579 186.872C110.62 185.942 109.672 185.301 108.735 184.95C107.803 184.594 106.916 184.51 106.074 184.697C105.232 184.884 104.475 185.324 103.802 186.018C103.13 186.711 102.713 187.482 102.551 188.329C102.39 189.176 102.5 190.062 102.879 190.988C103.264 191.909 103.935 192.835 104.894 193.765C105.853 194.695 106.798 195.337 107.731 195.693C108.668 196.044 109.557 196.127 110.399 195.94C111.24 195.753 111.998 195.312 112.67 194.619C113.343 193.925 113.76 193.155 113.921 192.308C114.082 191.461 113.971 190.577 113.587 189.655C113.207 188.73 112.538 187.802 111.579 186.872ZM120.051 179.94L125.937 185.648L123.198 188.472L113.018 178.598L115.628 175.907L117.424 177.649L117.54 177.53C117.166 176.73 117.064 175.898 117.234 175.034C117.399 174.165 117.848 173.353 118.581 172.597C119.266 171.891 120.019 171.424 120.838 171.198C121.657 170.973 122.496 170.992 123.353 171.258C124.206 171.519 125.028 172.033 125.819 172.8L132.3 179.087L129.562 181.91L123.584 176.112C122.965 175.504 122.325 175.191 121.663 175.175C120.997 175.155 120.389 175.428 119.841 175.993C119.472 176.373 119.228 176.788 119.109 177.238C118.994 177.684 119.014 178.141 119.169 178.609C119.324 179.068 119.618 179.512 120.051 179.94ZM123.624 160.874L137.197 174.038L134.459 176.862L120.885 163.697L123.624 160.874ZM139.391 171.777L129.211 161.903L131.949 159.08L142.129 168.953L139.391 171.777ZM129.274 159.212C128.867 159.632 128.378 159.857 127.809 159.887C127.239 159.909 126.757 159.729 126.364 159.348C125.975 158.971 125.785 158.499 125.794 157.933C125.802 157.358 126.01 156.861 126.417 156.441C126.824 156.022 127.313 155.801 127.883 155.779C128.453 155.749 128.932 155.922 129.321 156.299C129.714 156.68 129.906 157.159 129.898 157.733C129.889 158.299 129.681 158.792 129.274 159.212ZM141.176 158.16L147.061 163.868L144.323 166.692L134.143 156.818L136.752 154.127L138.548 155.869L138.664 155.75C138.291 154.95 138.189 154.118 138.358 153.254C138.524 152.385 138.973 151.573 139.705 150.817C140.391 150.11 141.143 149.644 141.963 149.418C142.782 149.192 143.62 149.212 144.477 149.478C145.33 149.739 146.152 150.253 146.943 151.02L153.425 157.307L150.687 160.13L144.708 154.332C144.09 153.723 143.449 153.411 142.787 153.395C142.121 153.375 141.514 153.647 140.965 154.213C140.597 154.593 140.353 155.008 140.233 155.458C140.118 155.904 140.138 156.361 140.293 156.828C140.448 157.287 140.743 157.731 141.176 158.16ZM160.282 150.635C159.266 151.682 158.18 152.378 157.023 152.722C155.866 153.057 154.699 153.049 153.523 152.697C152.342 152.341 151.215 151.642 150.141 150.601C149.094 149.585 148.372 148.49 147.975 147.317C147.579 146.143 147.517 144.973 147.791 143.807C148.069 142.636 148.692 141.551 149.661 140.553C150.312 139.881 151.027 139.361 151.805 138.992C152.583 138.614 153.396 138.417 154.244 138.4C155.097 138.378 155.966 138.561 156.851 138.947C157.732 139.33 158.606 139.941 159.472 140.781L160.247 141.533L151.91 150.13L150.16 148.433L155.92 142.494C155.513 142.1 155.067 141.839 154.582 141.711C154.097 141.584 153.614 141.591 153.133 141.734C152.652 141.867 152.212 142.139 151.814 142.55C151.398 142.979 151.129 143.455 151.006 143.98C150.883 144.495 150.898 145.006 151.049 145.513C151.196 146.016 151.469 146.465 151.866 146.859L153.53 148.472C154.034 148.961 154.559 149.29 155.106 149.46C155.657 149.626 156.199 149.633 156.732 149.481C157.265 149.329 157.761 149.017 158.219 148.544C158.523 148.231 158.758 147.901 158.922 147.554C159.087 147.208 159.171 146.856 159.174 146.499C159.177 146.142 159.098 145.791 158.936 145.445L161.641 143.001C162.14 143.742 162.424 144.545 162.494 145.41C162.563 146.267 162.416 147.144 162.051 148.042C161.686 148.931 161.096 149.795 160.282 150.635ZM117.769 211.436L121.202 207.897L133.947 213.004L134.101 212.845L128.607 200.262L132.04 196.722L145.613 209.887L142.913 212.671L134.079 204.102L133.969 204.215L139.331 216.232L137.492 218.127L125.284 213.104L125.175 213.216L134.043 221.817L131.343 224.601L117.769 211.436ZM150.863 204.859C150.233 205.509 149.559 205.978 148.841 206.268C148.118 206.553 147.39 206.627 146.657 206.491C145.923 206.345 145.221 205.947 144.549 205.295C143.983 204.747 143.609 204.182 143.426 203.602C143.243 203.021 143.208 202.439 143.321 201.854C143.434 201.268 143.651 200.691 143.974 200.12C144.3 199.545 144.683 198.982 145.123 198.431C145.635 197.779 146.041 197.246 146.339 196.832C146.633 196.414 146.804 196.07 146.852 195.799C146.9 195.528 146.816 195.288 146.6 195.078L146.56 195.04C146.14 194.632 145.687 194.45 145.2 194.492C144.717 194.53 144.243 194.79 143.775 195.271C143.283 195.78 143.003 196.293 142.937 196.812C142.867 197.327 142.952 197.796 143.194 198.219L140.449 200.624C139.959 199.892 139.677 199.112 139.603 198.286C139.525 197.456 139.663 196.616 140.015 195.766C140.368 194.908 140.939 194.072 141.727 193.259C142.276 192.693 142.867 192.216 143.501 191.828C144.139 191.435 144.792 191.173 145.461 191.041C146.133 190.904 146.802 190.931 147.466 191.121C148.127 191.307 148.759 191.693 149.365 192.28L156.231 198.94L153.634 201.618L152.222 200.248L152.145 200.328C152.305 200.8 152.373 201.291 152.35 201.8C152.323 202.306 152.192 202.817 151.956 203.334C151.716 203.847 151.351 204.356 150.863 204.859ZM149.698 202.161C150.101 201.746 150.375 201.3 150.52 200.823C150.661 200.342 150.678 199.874 150.571 199.418C150.464 198.963 150.231 198.562 149.873 198.214L148.793 197.167C148.765 197.311 148.7 197.484 148.598 197.685C148.497 197.879 148.374 198.089 148.229 198.318C148.08 198.542 147.929 198.764 147.776 198.984C147.618 199.2 147.475 199.396 147.347 199.572C147.075 199.95 146.871 200.315 146.737 200.665C146.603 201.015 146.561 201.347 146.609 201.66C146.653 201.968 146.807 202.251 147.072 202.508C147.457 202.881 147.886 203.027 148.359 202.945C148.832 202.855 149.278 202.594 149.698 202.161ZM158.355 196.75L148.175 186.876L150.83 184.139L152.606 185.861L152.709 185.755C152.257 184.957 152.082 184.183 152.184 183.432C152.281 182.678 152.606 182.016 153.159 181.446C153.296 181.304 153.453 181.16 153.629 181.014C153.805 180.868 153.969 180.748 154.12 180.654L156.625 183.084C156.457 183.178 156.244 183.327 155.986 183.531C155.728 183.735 155.504 183.934 155.316 184.129C154.913 184.544 154.643 185.003 154.507 185.506C154.371 186 154.37 186.496 154.504 186.995C154.642 187.489 154.919 187.937 155.334 188.34L161.094 193.926L158.355 196.75ZM165.314 183.713L161.934 180.422L162.332 180.011L161.631 173.002L164.774 169.762L165.642 179.105L164.993 179.774L165.314 183.713ZM165.762 189.113L152.189 175.948L154.927 173.124L168.501 186.289L165.762 189.113ZM171.933 182.75L164.594 181.445L164.424 177.628L175.141 179.443L171.933 182.75ZM180.59 174.223C179.574 175.27 178.488 175.965 177.331 176.31C176.174 176.645 175.007 176.637 173.831 176.285C172.65 175.928 171.523 175.23 170.449 174.188C169.402 173.173 168.68 172.078 168.283 170.904C167.887 169.731 167.825 168.561 168.099 167.394C168.377 166.224 169.001 165.139 169.969 164.14C170.621 163.469 171.335 162.948 172.113 162.58C172.891 162.202 173.704 162.005 174.553 161.987C175.405 161.966 176.274 162.148 177.16 162.535C178.04 162.918 178.914 163.529 179.78 164.369L180.555 165.121L172.218 173.717L170.468 172.02L176.228 166.082C175.821 165.688 175.376 165.427 174.89 165.299C174.405 165.172 173.922 165.179 173.441 165.321C172.96 165.455 172.52 165.727 172.122 166.138C171.706 166.567 171.437 167.043 171.314 167.567C171.192 168.083 171.206 168.594 171.357 169.101C171.504 169.604 171.777 170.052 172.175 170.447L173.838 172.06C174.342 172.549 174.867 172.878 175.414 173.048C175.965 173.214 176.507 173.221 177.04 173.069C177.573 172.917 178.069 172.605 178.527 172.132C178.832 171.818 179.066 171.488 179.23 171.142C179.395 170.796 179.479 170.444 179.482 170.087C179.485 169.73 179.406 169.378 179.244 169.033L181.949 166.589C182.448 167.33 182.732 168.133 182.802 168.998C182.872 169.854 182.724 170.732 182.359 171.63C181.994 172.519 181.404 173.383 180.59 174.223ZM181.782 152.226L183.903 154.283L177.956 160.414L175.836 158.357L181.782 152.226ZM174.747 154.6L177.485 151.776L186.976 160.981C187.236 161.234 187.478 161.391 187.701 161.453C187.92 161.511 188.126 161.497 188.321 161.411C188.52 161.321 188.711 161.181 188.896 160.991C189.024 160.859 189.142 160.715 189.248 160.561C189.35 160.403 189.429 160.282 189.484 160.199L192.016 161.792C191.923 161.976 191.781 162.225 191.59 162.537C191.403 162.853 191.138 163.201 190.796 163.58C190.163 164.286 189.493 164.795 188.789 165.106C188.088 165.413 187.382 165.496 186.67 165.354C185.959 165.213 185.271 164.816 184.609 164.165L174.747 154.6ZM197.563 163.963L183.565 150.387L186.265 147.603L187.975 149.262L188.097 149.136C187.943 148.747 187.839 148.298 187.783 147.789C187.727 147.272 187.789 146.731 187.967 146.167C188.146 145.594 188.511 145.023 189.064 144.453C189.784 143.71 190.643 143.214 191.64 142.964C192.633 142.709 193.7 142.771 194.842 143.15C195.98 143.524 197.132 144.277 198.298 145.408C199.434 146.51 200.215 147.623 200.641 148.748C201.067 149.865 201.177 150.932 200.971 151.949C200.764 152.958 200.286 153.849 199.536 154.622C199.005 155.17 198.462 155.548 197.908 155.757C197.358 155.961 196.828 156.052 196.319 156.03C195.805 156.003 195.344 155.916 194.937 155.77L194.854 155.856L200.302 161.14L197.563 163.963ZM191.336 152.56C191.941 153.147 192.551 153.575 193.164 153.845C193.778 154.114 194.365 154.212 194.925 154.138C195.481 154.06 195.98 153.793 196.421 153.338C196.867 152.878 197.118 152.367 197.175 151.805C197.227 151.238 197.107 150.655 196.815 150.054C196.523 149.445 196.081 148.853 195.489 148.279C194.901 147.709 194.305 147.289 193.7 147.02C193.095 146.75 192.512 146.653 191.952 146.726C191.392 146.8 190.886 147.069 190.437 147.533C189.991 147.993 189.735 148.499 189.67 149.053C189.608 149.603 189.72 150.178 190.003 150.778C190.286 151.379 190.731 151.973 191.336 152.56ZM194.365 132.462L207.939 145.627L205.201 148.45L191.627 135.285L194.365 132.462ZM213.14 140.649C212.51 141.298 211.836 141.768 211.118 142.057C210.396 142.342 209.668 142.417 208.934 142.28C208.201 142.134 207.498 141.736 206.826 141.085C206.261 140.536 205.887 139.972 205.704 139.391C205.521 138.811 205.486 138.228 205.599 137.643C205.711 137.058 205.929 136.48 206.251 135.909C206.577 135.334 206.961 134.771 207.401 134.22C207.913 133.568 208.318 133.035 208.617 132.621C208.911 132.203 209.082 131.859 209.13 131.588C209.178 131.318 209.094 131.077 208.877 130.867L208.837 130.829C208.418 130.422 207.964 130.239 207.478 130.281C206.995 130.319 206.52 130.579 206.053 131.061C205.56 131.569 205.281 132.082 205.215 132.601C205.144 133.116 205.23 133.585 205.471 134.008L202.726 136.413C202.236 135.681 201.955 134.902 201.881 134.076C201.803 133.246 201.94 132.405 202.293 131.556C202.646 130.697 203.216 129.861 204.005 129.048C204.553 128.483 205.144 128.006 205.778 127.617C206.417 127.225 207.07 126.962 207.738 126.83C208.411 126.693 209.079 126.72 209.744 126.91C210.404 127.096 211.037 127.483 211.642 128.07L218.508 134.729L215.911 137.407L214.5 136.038L214.423 136.117C214.582 136.589 214.651 137.08 214.628 137.59C214.601 138.095 214.469 138.606 214.234 139.124C213.993 139.637 213.629 140.145 213.14 140.649ZM211.976 137.95C212.379 137.535 212.653 137.089 212.798 136.612C212.938 136.131 212.955 135.663 212.848 135.207C212.741 134.752 212.509 134.351 212.151 134.004L211.07 132.956C211.042 133.1 210.977 133.273 210.876 133.475C210.774 133.668 210.651 133.879 210.507 134.107C210.358 134.331 210.207 134.554 210.053 134.774C209.896 134.989 209.753 135.185 209.625 135.361C209.352 135.74 209.149 136.104 209.015 136.454C208.881 136.805 208.838 137.136 208.886 137.449C208.93 137.757 209.085 138.04 209.35 138.297C209.734 138.67 210.163 138.816 210.636 138.735C211.109 138.645 211.556 138.383 211.976 137.95ZM225.293 128.132C224.282 129.175 223.191 129.857 222.02 130.18C220.85 130.494 219.674 130.468 218.493 130.103C217.317 129.734 216.214 129.05 215.184 128.051C214.141 127.04 213.422 125.952 213.025 124.787C212.629 123.613 212.571 122.439 212.854 121.264C213.132 120.084 213.77 118.98 214.769 117.95C215.63 117.062 216.545 116.441 217.515 116.086C218.485 115.732 219.45 115.643 220.41 115.82C221.37 115.997 222.263 116.447 223.088 117.17L220.504 119.834C219.923 119.417 219.322 119.219 218.699 119.242C218.077 119.256 217.515 119.521 217.014 120.038C216.59 120.475 216.338 120.973 216.26 121.532C216.181 122.081 216.279 122.665 216.554 123.284C216.829 123.902 217.287 124.522 217.928 125.143C218.577 125.773 219.215 126.22 219.842 126.485C220.473 126.745 221.066 126.828 221.622 126.732C222.177 126.636 222.667 126.37 223.092 125.933C223.404 125.61 223.619 125.256 223.735 124.871C223.855 124.482 223.871 124.082 223.782 123.669C223.693 123.248 223.495 122.838 223.188 122.438L225.772 119.773C226.507 120.572 226.986 121.448 227.21 122.402C227.433 123.348 227.389 124.313 227.078 125.297C226.766 126.281 226.171 127.226 225.293 128.132ZM235.956 117.138C234.94 118.185 233.854 118.881 232.697 119.225C231.54 119.561 230.373 119.552 229.196 119.2C228.016 118.844 226.889 118.145 225.815 117.104C224.768 116.088 224.046 114.994 223.649 113.82C223.252 112.646 223.191 111.476 223.465 110.31C223.743 109.139 224.366 108.054 225.335 107.056C225.986 106.384 226.701 105.864 227.479 105.495C228.256 105.118 229.07 104.92 229.918 104.903C230.771 104.881 231.64 105.064 232.525 105.451C233.406 105.833 234.28 106.445 235.146 107.285L235.921 108.037L227.584 116.633L225.834 114.936L231.594 108.997C231.187 108.603 230.741 108.342 230.256 108.215C229.771 108.087 229.288 108.095 228.807 108.237C228.326 108.371 227.886 108.643 227.487 109.054C227.072 109.482 226.803 109.959 226.68 110.483C226.557 110.998 226.572 111.51 226.723 112.017C226.87 112.519 227.142 112.968 227.54 113.362L229.204 114.976C229.707 115.464 230.233 115.794 230.779 115.964C231.33 116.129 231.872 116.136 232.406 115.985C232.939 115.833 233.434 115.521 233.893 115.048C234.197 114.734 234.432 114.404 234.596 114.058C234.761 113.711 234.844 113.359 234.848 113.002C234.851 112.646 234.772 112.294 234.61 111.948L237.315 109.504C237.813 110.245 238.098 111.048 238.168 111.914C238.237 112.77 238.09 113.647 237.725 114.545C237.36 115.434 236.77 116.299 235.956 117.138Z" fill="black"/>
</svg>
